<svg xmlns="http://www.w3.org/2000/svg" xmlns:xlink="http://www.w3.org/1999/xlink" viewBox="0,0,256,256" width="64px" height="64px" fill-rule="nonzero"><g fill="#1e63ba" fill-rule="nonzero" stroke="none" stroke-width="1" stroke-linecap="butt" stroke-linejoin="miter" stroke-miterlimit="10" stroke-dasharray="" stroke-dashoffset="0" font-family="none" font-weight="none" font-size="none" text-anchor="none" style="mix-blend-mode: normal"><g transform="scale(16,16)"><path d="M2.0625,1.01563l5.4375,4.98438l2.5,-2.70117l2,2.02148v4.67969l2,2v-5.57812c0,-0.448 -0.17814,-0.87636 -0.49414,-1.19336l-3.71875,-3.71875c-0.316,-0.316 -0.74636,-0.49414 -1.19336,-0.49414zM10.70703,1.01563l3.29297,3.29297v-3.29297zM1,2.74219v5.8418c0,0.448 0.17814,0.87636 0.49414,1.19336l3.72266,3.72266c0.317,0.317 0.74536,0.49414 1.19336,0.49414h6.58398l-2.99414,-2.99414v-5l-2.5,2.9707l-2.5,-2.5625v4.95117l-2,-2v-4.77344zM1,10.69727v3.29688h3.29688z"></path></g></g></svg>